<?xml version="1.0" encoding="UTF-8" standalone="no"?>
<!-- Created with Inkscape (http://www.inkscape.org/) -->

<svg
   width="128"
   height="128"
   viewBox="0 0 33.866666 33.866666"
   version="1.1"
   id="svg1"
   inkscape:version="1.3 (0e150ed6c4, 2023-07-21)"
   sodipodi:docname="логотип.svg"
   inkscape:export-filename="логотип.png"
   inkscape:export-xdpi="96"
   inkscape:export-ydpi="96"
   xmlns:inkscape="http://www.inkscape.org/namespaces/inkscape"
   xmlns:sodipodi="http://sodipodi.sourceforge.net/DTD/sodipodi-0.dtd"
   xmlns="http://www.w3.org/2000/svg"
   xmlns:svg="http://www.w3.org/2000/svg">
  <sodipodi:namedview
     id="namedview1"
     pagecolor="#ffffff"
     bordercolor="#000000"
     borderopacity="0.25"
     inkscape:showpageshadow="2"
     inkscape:pageopacity="0.0"
     inkscape:pagecheckerboard="0"
     inkscape:deskcolor="#d1d1d1"
     inkscape:document-units="mm"
     inkscape:zoom="2.0686841"
     inkscape:cx="111.18179"
     inkscape:cy="152.02901"
     inkscape:window-width="1920"
     inkscape:window-height="1017"
     inkscape:window-x="1912"
     inkscape:window-y="-8"
     inkscape:window-maximized="1"
     inkscape:current-layer="layer1"
     showguides="false" />
  <defs
     id="defs1" />
  <g
     inkscape:label="Слой 1"
     inkscape:groupmode="layer"
     id="layer1">
    <rect
       style="fill:#dddddd;fill-opacity:0.66907775;stroke:none;stroke-width:1.32292;stroke-linecap:butt;stroke-dasharray:none;paint-order:stroke fill markers"
       id="rect1"
       width="30.843021"
       height="28.921032"
       x="1.8992083"
       y="1.9184901" />
    <text
       xml:space="preserve"
       style="font-size:25.4px;line-height:1.1;font-family:Arial;-inkscape-font-specification:Arial;text-align:center;text-anchor:middle;fill:#ededed;stroke:#000000;stroke-width:0.264583;stroke-linecap:square;paint-order:stroke fill markers"
       x="28.673601"
       y="29.252022"
       id="text2"><tspan
         sodipodi:role="line"
         id="tspan2"
         style="font-style:normal;font-variant:normal;font-weight:bold;font-stretch:normal;font-size:25.4px;font-family:'Century Schoolbook';-inkscape-font-specification:'Century Schoolbook Bold';fill:#000000;stroke:none;stroke-width:0.264583"
         x="28.673601"
         y="29.252022">t</tspan></text>
    <path
       style="fill:none;stroke:#000000;stroke-width:1.32291667;stroke-linecap:square;paint-order:stroke fill markers;stroke-opacity:1;stroke-dasharray:none"
       d="M 1.8992083,2.0800852 V 30.839523 H 32.648294"
       id="path2" />
    <path
       style="fill:none;stroke:#008000;stroke-width:1.5875;stroke-linecap:butt;stroke-dasharray:none;stroke-opacity:1;paint-order:stroke fill markers"
       d="M 1.8992083,21.614799 C 2.8598386,20.861652 3.6854304,19.99818 4.79324,19.444275 5.0236164,19.329087 5.2863712,19.288148 5.5167479,19.17296 c 0.4184187,-0.20921 0.8010385,-0.590623 1.2661387,-0.723508 0.2954009,-0.0844 1.2106843,-0.02363 1.447016,0 0.2789626,0.0279 1.4211741,0.488231 1.6278926,0.542631 0.6126048,0.161211 2.8019028,0.345419 3.2557858,0.271315 1.153878,-0.188388 3.871103,-1.105757 5.064555,-1.627893 0.741086,-0.324225 1.440194,-0.737486 2.170524,-1.085262 0.536128,-0.255299 1.096772,-0.457947 1.627893,-0.723507 0.494985,-0.247493 0.955467,-0.559698 1.447016,-0.813947 0.383379,-0.1983 0.789641,-0.349601 1.1757,-0.542631 0.542135,-0.271067 0.588138,-0.433018 0.994823,-0.723508 0.350804,-0.250574 0.727921,-0.385679 1.085263,-0.633069 0.48337,-0.334642 0.797227,-0.840763 1.266137,-1.1757 0.04906,-0.03505 0.12368,0.01906 0.180877,0 0.04045,-0.01348 0.05231,-0.07137 0.09044,-0.09044 0.05337,-0.02669 0.210529,0 0.271315,0 1.001752,0 1.002686,0.583637 1.808771,0.813946 0.05797,0.01656 0.120584,0 0.180877,0 0.09044,0.06029 0.168198,0.146505 0.271314,0.180878 0.0858,0.0286 0.187346,-0.03359 0.271314,0 0.07917,0.03167 0.104614,0.142744 0.180878,0.180876 0.230743,0.115372 0.540517,0.08832 0.723508,0.271316"
       id="path3" />
    <path
       style="fill:none;stroke:#0000ff;stroke-width:1.5875;stroke-linecap:butt;stroke-dasharray:none;stroke-opacity:1;paint-order:stroke fill markers"
       d="M 1.8992083,9.3366517 C 2.3319667,9.2940184 2.7735217,9.3054679 3.1974835,9.2087522 3.4398487,9.153463 3.6011453,8.9036659 3.83698,8.8250542 4.4974779,8.4676974 4.1547375,8.8415404 4.7322755,8.6971549 5.0856573,8.6088095 5.3940254,8.3586375 5.7554701,8.3134569 c 1.7331417,0 0.00238,0.09533 0.8952954,-0.1278993 0.8380572,-0.2095143 1.6385524,0.6913769 2.302188,1.0231946 0.3213484,0.1606743 0.9201171,0.2682097 1.1510945,0.3836982 0.05393,0.026963 0.08527,0.085266 0.127899,0.1278993 0,0.042633 -0.03813,0.1088332 0,0.1278993 0.07626,0.038132 0.174908,-0.026964 0.255799,0 0.0572,0.019066 0.0707,0.1088332 0.127899,0.1278993 0.345448,0.1151497 0.916695,0 1.278993,0 0.357065,0 0.807126,-0.085992 1.151094,0 0.454338,0.1135847 0.909105,0.1990117 1.406893,0.1278997 0.575934,-0.08228 2.260786,-0.3122328 2.813785,-0.1278997 0.328604,0.1095347 0.508483,0.3044667 0.767397,0.5115977 0.194117,0.155294 0.448523,0.224553 0.639496,0.383698 0.542596,0.452163 1.208902,1.13327 1.662692,1.662691 0.06204,0.07238 0.06049,0.18839 0.127899,0.255799 0.366542,0.366541 0.351301,0.17565 0.767396,0.383698 0.195888,0.09794 0.100019,0.227918 0.255799,0.383698 1.169304,1.169304 -0.155631,-0.411429 0.639496,0.383698 0.03015,0.03015 -0.03015,0.09775 0,0.127899 0.149418,0.149418 2.331997,0.203229 2.557987,0.127899 0.145828,-0.04861 0.240977,-0.19871 0.383698,-0.255798 0.07917,-0.03167 0.170533,0 0.255799,0 0.213165,-0.08527 0.429698,-0.162555 0.639496,-0.255799 0.706723,-0.314099 1.462677,-0.462419 2.17429,-0.767396 0.523415,-0.224321 1.025462,-0.512731 1.534792,-0.767396 0.426331,-0.213166 0.897671,-0.353505 1.278994,-0.639497 0.192934,-0.144701 0.318661,-0.366895 0.511595,-0.511597 0.242573,-0.181929 1.278993,-0.475455 1.278993,-0.767396"
       id="path4" />
    <text
       xml:space="preserve"
       style="font-size:25.4px;line-height:1.1;font-family:Arial;-inkscape-font-specification:Arial;text-align:center;text-anchor:middle;fill:#ededed;stroke:#000000;stroke-width:0.264583;stroke-linecap:square;paint-order:stroke fill markers"
       x="9.8577948"
       y="18.992083"
       id="text1"><tspan
         sodipodi:role="line"
         id="tspan1"
         style="font-style:normal;font-variant:normal;font-weight:bold;font-stretch:normal;font-size:25.4px;font-family:'Century Gothic';-inkscape-font-specification:'Century Gothic Bold';fill:#ff0000;stroke:none;stroke-width:0.264583"
         x="9.8577948"
         y="18.992083">Y</tspan></text>
  </g>
</svg>
